# xmcd
#
# Track frame offsets: 
#        150
#        11855
#        23920
#        34814
#        46484
#        58505
#        70550
#        81919
#        92177
#        104408
#        116238
#        129510
#        140836
#        153472
#        165273
#
# Disc length: 2347 seconds
#
# Revision: 6
# Processed by: cddbd v1.5.2PL0 Copyright (c) Steve Scherf et al.
# Submitted via: ExactAudioCopy v0.99pb5
#
DISCID=cc09290f
DTITLE=Various Artist - Classic Country - TL 626-14 - 1957 - 1960 - CD 2
DYEAR=2001
DGENRE=Country
TTITLE0=Jim Reeves - I missed me
TTITLE1=Johnny Cash And The Tennessee Two - Home of the blues
TTITLE2=Browns - The old lamplighter
TTITLE3=Faron Young - Country girl
TTITLE4=Don Gibson - Give myself a party
TTITLE5=Kitty Wells - Amigo's guitar
TTITLE6=Stonewall Jackson - Life to go
TTITLE7=Skeeter Davis - Set him free
TTITLE8=Roy Drusky - Another
TTITLE9=Charlie Walker - Pick me up on your way down
TTITLE10=Jimmie Skinner - I found my girl in the USA
TTITLE11=Sonny James - First date, first kiss, first love
TTITLE12=Ray Price - One more time
TTITLE13=Johnny Horton - When it's springtime in Alaska (it's forty be
TTITLE13=low)
TTITLE14=Everly Brothers - Devoted to you
EXTD=
EXTT0=
EXTT1=
EXTT2=
EXTT3=
EXTT4=
EXTT5=
EXTT6=
EXTT7=
EXTT8=
EXTT9=
EXTT10=
EXTT11=
EXTT12=
EXTT13=
EXTT14=
PLAYORDER=
